<svg width="211" height="87" viewBox="0 0 211 87" fill="none" xmlns="http://www.w3.org/2000/svg">
<path d="M100.912 30.5899C100.279 30.5899 99.8215 30.0625 99.8215 29.4296V19.1275C99.8215 18.4946 100.279 17.9672 100.912 17.9672C101.544 17.9672 101.966 18.4946 101.966 19.1275V29.4647C101.966 30.0625 101.544 30.5899 100.912 30.5899Z" fill="black"/>
<path d="M114.976 30.5899C114.624 30.5899 114.448 30.4493 114.237 30.2031L107.944 22.1513V29.5702C107.944 30.168 107.451 30.6251 106.889 30.6251C106.326 30.6251 105.834 30.1328 105.834 29.5702V19.0923C105.834 18.5297 106.221 18.0023 106.889 18.0023C107.17 18.0023 107.416 18.1781 107.592 18.3891L113.886 26.4409V19.0572C113.886 18.4946 114.308 17.9672 114.941 17.9672C115.574 17.9672 115.996 18.4594 115.996 19.0572V29.5351C115.996 30.0976 115.574 30.5899 114.976 30.5899Z" fill="black"/>
<path d="M129.11 30.5899C128.759 30.5899 128.513 30.4493 128.302 30.2031L121.938 22.1161V29.5351C121.938 30.1328 121.445 30.5899 120.883 30.5899C120.32 30.5899 119.828 30.0976 119.828 29.5351V19.0572C119.828 18.4946 120.215 17.9672 120.883 17.9672C121.164 17.9672 121.516 18.143 121.692 18.3539L128.091 26.4058V19.022C128.091 18.4594 128.513 17.932 129.146 17.932C129.779 17.932 130.2 18.4243 130.2 19.022V29.4999C130.2 30.0976 129.708 30.5899 129.11 30.5899Z" fill="black"/>
<path d="M139.413 19.9362C136.881 19.9362 135.369 21.9404 135.369 24.2961C135.369 26.6519 136.916 28.6561 139.413 28.6561C141.944 28.6561 143.456 26.6519 143.456 24.2961C143.456 21.9404 141.909 19.9362 139.413 19.9362ZM139.413 30.6602C135.791 30.6602 133.084 27.8474 133.084 24.261C133.084 20.6746 135.791 17.8617 139.413 17.8617C143.034 17.8617 145.742 20.6746 145.742 24.261C145.742 27.8474 143.034 30.6602 139.413 30.6602Z" fill="black"/>
<path d="M158.329 19.4791L153.758 29.9922C153.582 30.3789 153.196 30.5899 152.809 30.5899C152.387 30.5899 152 30.3789 151.86 29.9922L147.218 19.4791C147.148 19.3384 147.113 19.1978 147.113 19.0572C147.113 18.4946 147.57 17.9672 148.132 17.9672C148.554 17.9672 148.941 18.1781 149.117 18.5649L152.739 27.1793L156.395 18.5649C156.571 18.1781 156.923 17.9672 157.345 17.9672C157.942 17.9672 158.399 18.4594 158.399 19.022C158.399 19.1626 158.364 19.3033 158.329 19.4791Z" fill="black"/>
<path d="M164.693 20.991L162.759 25.7025H166.592L164.693 20.991ZM167.436 27.8122H161.951L160.896 30.0273C160.685 30.4141 160.439 30.6251 159.947 30.6251C159.278 30.6251 158.857 30.0976 158.857 29.5702C158.857 29.4296 158.892 29.2538 158.962 29.1131L163.709 18.5649C163.885 18.1781 164.201 17.9672 164.658 17.9672C165.15 17.9672 165.467 18.1781 165.607 18.5649L170.354 29.078C170.424 29.2186 170.46 29.3593 170.46 29.5351C170.46 30.0625 170.038 30.5899 169.37 30.5899C168.877 30.5899 168.631 30.4141 168.42 30.0273L167.436 27.8122Z" fill="black"/>
<path d="M180.129 20.1471H176.929V29.4296C176.929 30.0625 176.367 30.5899 175.734 30.5899C175.101 30.5899 174.573 30.0625 174.573 29.4296V20.1471H171.409C170.811 20.1471 170.319 19.6549 170.319 19.0923C170.319 18.4946 170.776 18.0375 171.409 18.0375H180.023C180.621 18.0375 181.113 18.5297 181.113 19.0923C181.113 19.6549 180.656 20.1471 180.023 20.1471" fill="black"/>
<path d="M184.594 30.5899C183.961 30.5899 183.504 30.0625 183.504 29.4296V19.1275C183.504 18.4946 183.961 17.9672 184.594 17.9672C185.227 17.9672 185.649 18.4946 185.649 19.1275V29.4647C185.649 30.0625 185.227 30.5899 184.594 30.5899Z" fill="black"/>
<path d="M199.256 19.4791L194.685 29.9922C194.51 30.3789 194.123 30.5899 193.736 30.5899C193.314 30.5899 192.927 30.3789 192.787 29.9922L188.181 19.4791C188.11 19.3384 188.075 19.1978 188.075 19.0572C188.075 18.4946 188.532 17.9672 189.095 17.9672C189.517 17.9672 189.904 18.1781 190.079 18.5649L193.701 27.1793L197.358 18.5649C197.533 18.1781 197.885 17.9672 198.307 17.9672C198.905 17.9672 199.362 18.4594 199.362 19.022C199.362 19.1626 199.291 19.3033 199.256 19.4791Z" fill="black"/>
<path d="M209.84 30.3438H202.948C202.315 30.3438 201.753 29.9218 201.753 29.2889V19.2329C201.753 18.6001 202.315 18.0375 202.948 18.0375H209.629C210.226 18.0375 210.719 18.4946 210.719 19.0923C210.719 19.69 210.226 20.1471 209.629 20.1471H204.108V23.1358H207.132C207.695 23.1358 208.187 23.628 208.187 24.1906C208.187 24.7884 207.695 25.2454 207.132 25.2454H204.108V28.4451H209.91C210.508 28.4451 211 28.8319 211 29.3944C211 29.957 210.508 30.3438 209.91 30.3438" fill="black"/>
<path d="M111.073 49.8932C110.475 49.8932 110.018 49.4009 110.018 48.8383V42.6852L106.854 49.2954C106.678 49.6822 106.326 49.8932 105.904 49.8932C105.447 49.8932 105.131 49.7174 104.955 49.2954L101.755 42.6852V48.8383C101.755 49.4009 101.263 49.9283 100.701 49.9283C100.138 49.9283 99.6457 49.4361 99.6457 48.8383V38.3604C99.6457 37.7979 100.103 37.3056 100.736 37.3056C101.228 37.3056 101.544 37.5869 101.755 37.9737L105.94 46.6584L110.088 37.9737C110.264 37.5869 110.651 37.3056 111.108 37.3056C111.776 37.3056 112.198 37.7627 112.198 38.3956V48.8735C112.163 49.4009 111.706 49.8932 111.073 49.8932Z" fill="black"/>
<path d="M123.836 49.6822H116.91C116.277 49.6822 115.785 49.2251 115.785 48.5922V38.5363C115.785 37.9034 116.312 37.3759 116.91 37.3759H123.555C124.153 37.3759 124.645 37.833 124.645 38.4308C124.645 39.0285 124.153 39.4856 123.555 39.4856H118.07V42.4743H121.024C121.586 42.4743 122.078 42.9665 122.078 43.5291C122.078 44.1268 121.586 44.5839 121.024 44.5839H118.07V47.5726H123.801C124.399 47.5726 124.891 48.0648 124.891 48.6274C124.926 49.2251 124.434 49.6822 123.836 49.6822Z" fill="black"/>
<path d="M131.923 39.4856H129.814V47.5726H131.994C134.56 47.5726 136.002 45.92 136.002 43.5291C136.002 41.1382 134.56 39.4856 131.994 39.4856H131.923ZM132.134 49.6822H128.689C128.056 49.6822 127.458 49.2251 127.458 48.5922V38.5363C127.458 37.9034 128.056 37.3759 128.689 37.3759H132.064C135.826 37.3759 138.217 40.0833 138.217 43.5291C138.217 46.9748 135.826 49.6822 132.064 49.6822" fill="black"/>
<path d="M142.331 49.8932C141.698 49.8932 141.241 49.3658 141.241 48.7329V38.3956C141.241 37.7627 141.698 37.2353 142.331 37.2353C142.964 37.2353 143.386 37.7627 143.386 38.3956V48.7329C143.386 49.3658 142.964 49.8932 142.331 49.8932Z" fill="black"/>
<path d="M155.411 46.8342C155.657 46.6584 155.903 46.5881 156.149 46.5881C156.782 46.5881 157.169 47.0803 157.169 47.6077C157.169 47.889 157.028 48.1352 156.817 48.3813C155.762 49.4713 154.145 49.9635 152.703 49.9635C149.082 49.9635 146.41 47.4319 146.41 43.5642C146.41 39.6966 149.082 37.165 152.703 37.165C154.145 37.165 155.762 37.6572 156.817 38.7472C157.028 38.9582 157.169 39.2043 157.169 39.5208C157.169 40.0833 156.782 40.5404 156.149 40.5404C155.903 40.5404 155.657 40.4349 155.411 40.2943C154.708 39.7669 153.934 39.2746 152.703 39.2746C150.277 39.2746 148.695 41.103 148.695 43.5642C148.695 46.0255 150.277 47.8539 152.703 47.8539C153.934 47.8539 154.708 47.3968 155.411 46.8342Z" fill="black"/>
<path d="M161.247 49.8932C160.615 49.8932 160.157 49.3658 160.157 48.7329V38.3956C160.157 37.7627 160.615 37.2353 161.247 37.2353C161.88 37.2353 162.302 37.7627 162.302 38.3956V48.7329C162.267 49.3658 161.88 49.8932 161.247 49.8932Z" fill="black"/>
<path d="M175.277 49.8932C174.925 49.8932 174.644 49.7525 174.433 49.5064L168.033 41.4546V48.8735C168.033 49.4712 167.541 49.9283 166.979 49.9283C166.416 49.9283 165.924 49.4361 165.924 48.8735V38.3956C165.924 37.833 166.381 37.3056 167.084 37.3056C167.365 37.3056 167.682 37.4814 167.858 37.6924L174.222 45.7442V38.3604C174.222 37.7979 174.644 37.2704 175.277 37.2704C175.91 37.2704 176.331 37.7627 176.331 38.3604V48.8384C176.296 49.4009 175.91 49.8932 175.277 49.8932Z" fill="black"/>
<path d="M188.181 49.6822H181.219C180.586 49.6822 180.094 49.2251 180.094 48.5922V38.5363C180.094 37.9034 180.586 37.3759 181.219 37.3759H187.864C188.462 37.3759 188.954 37.833 188.954 38.4308C188.954 39.0285 188.462 39.4856 187.864 39.4856H182.203V42.4743H185.368C185.93 42.4743 186.423 42.9665 186.423 43.5291C186.423 44.1268 185.93 44.5839 185.368 44.5839H182.203V47.5726H188.145C188.743 47.5726 189.235 48.0648 189.235 48.6274C189.271 49.2251 188.778 49.6822 188.181 49.6822Z" fill="black"/>
<path d="M196.232 49.9635C194.721 49.9635 193.033 49.5064 191.943 48.6626C191.556 48.3813 191.31 47.9945 191.31 47.5726C191.31 47.01 191.662 46.6232 192.259 46.6232C192.47 46.6232 192.646 46.6936 192.822 46.799C193.806 47.4319 194.51 47.9945 196.232 47.9945C198.026 47.9945 198.729 47.2561 198.729 46.4474C198.729 45.5332 197.991 45.0762 195.775 44.4784C192.435 43.5994 191.415 42.5094 191.415 40.681C191.415 38.4308 193.349 37.2353 196.303 37.2353C196.971 37.2353 197.885 37.3408 198.659 37.5517C199.502 37.7979 200.592 38.3253 200.592 39.0637C200.592 39.5559 200.311 40.0833 199.678 40.0833C199.538 40.0833 199.397 40.0482 199.221 39.9778C198.377 39.5911 197.498 39.2043 196.303 39.2043C194.65 39.2043 193.666 39.6614 193.666 40.6107C193.666 41.5249 194.404 41.8414 196.619 42.4742C199.151 43.2126 200.944 43.951 200.944 46.3068C201.014 48.4516 199.397 49.9635 196.232 49.9635Z" fill="black"/>
<path d="M107.944 65.8914C108.19 65.7156 108.436 65.6452 108.682 65.6452C109.315 65.6452 109.702 66.1375 109.702 66.6649C109.702 66.9462 109.561 67.1923 109.35 67.4384C108.295 68.5284 106.678 69.0207 105.236 69.0207C101.615 69.0207 98.9425 66.4891 98.9425 62.6214C98.9425 58.7537 101.615 56.2221 105.236 56.2221C106.678 56.2221 108.295 56.7144 109.35 57.8044C109.561 58.0153 109.702 58.2615 109.702 58.5779C109.702 59.1405 109.315 59.5976 108.682 59.5976C108.436 59.5976 108.19 59.4921 107.944 59.3514C107.24 58.824 106.467 58.3318 105.236 58.3318C102.81 58.3318 101.228 60.1602 101.228 62.6214C101.228 65.0827 102.81 66.911 105.236 66.911C106.502 66.911 107.24 66.4188 107.944 65.8914Z" fill="black"/>
<path d="M117.507 59.4218L115.609 64.1333H119.441L117.507 59.4218ZM120.25 66.032H114.765L113.71 68.2823C113.499 68.6339 113.253 68.88 112.761 68.88C112.093 68.88 111.671 68.3526 111.671 67.8252C111.671 67.6846 111.706 67.5439 111.776 67.3681L116.523 56.855C116.699 56.4683 117.015 56.2573 117.472 56.2573C117.964 56.2573 118.281 56.4683 118.422 56.855L123.168 67.3681C123.239 67.5088 123.274 67.6494 123.274 67.8252C123.274 68.3526 122.852 68.88 122.184 68.88C121.692 68.88 121.445 68.6691 121.234 68.2823L120.25 66.032Z" fill="black"/>
<path d="M135.088 68.9152C134.736 68.9152 134.49 68.7745 134.279 68.5284L127.88 60.4414V67.8604C127.88 68.4581 127.388 68.9152 126.825 68.9152C126.262 68.9152 125.77 68.4229 125.77 67.8604V57.3824C125.77 56.8199 126.192 56.2925 126.86 56.2925C127.141 56.2925 127.493 56.4683 127.634 56.6792L134.033 64.7311V57.3473C134.033 56.7847 134.455 56.2573 135.088 56.2573C135.721 56.2573 136.143 56.7495 136.143 57.3473V67.8252C136.143 68.4229 135.721 68.9152 135.088 68.9152Z" fill="black"/>
<path d="M144.37 59.4218L142.436 64.1333H146.269L144.37 59.4218ZM147.113 66.032H141.628L140.573 68.2823C140.362 68.6339 140.116 68.88 139.624 68.88C138.956 68.88 138.534 68.3526 138.534 67.8252C138.534 67.6846 138.569 67.5439 138.639 67.3681L143.386 56.855C143.562 56.4683 143.878 56.2573 144.335 56.2573C144.827 56.2573 145.144 56.4683 145.284 56.855L150.031 67.3681C150.101 67.5088 150.137 67.6494 150.137 67.8252C150.137 68.3526 149.715 68.88 149.047 68.88C148.554 68.88 148.308 68.6691 148.097 68.2823L147.113 66.032Z" fill="black"/>
<path d="M156.958 58.6131H154.848V66.7H156.993C159.56 66.7 161.001 65.0475 161.001 62.6566C161.001 60.2656 159.56 58.6131 156.958 58.6131ZM157.169 68.8097H153.723C153.09 68.8097 152.492 68.2471 152.492 67.6142V57.5582C152.492 56.9253 153.09 56.4683 153.723 56.4683H157.098C160.861 56.4683 163.252 59.1756 163.252 62.6214C163.252 66.0672 160.861 68.7745 157.098 68.7745" fill="black"/>
<path d="M170.495 59.4218L168.561 64.1333H172.393L170.495 59.4218ZM173.202 66.032H167.717L166.662 68.2823C166.451 68.6339 166.205 68.88 165.713 68.88C165.045 68.88 164.623 68.3526 164.623 67.8252C164.623 67.6846 164.658 67.5439 164.728 67.3681L169.475 56.855C169.651 56.4683 169.967 56.2573 170.424 56.2573C170.882 56.2573 171.233 56.4683 171.374 56.855L176.12 67.3681C176.191 67.5088 176.226 67.6494 176.226 67.8252C176.226 68.3526 175.804 68.88 175.136 68.88C174.644 68.88 174.398 68.6691 174.187 68.2823L173.202 66.032Z" fill="black"/>
<path d="M54.886 39.8372C53.3741 40.7162 51.4051 40.1888 50.5261 38.6769C49.6471 37.165 50.1745 35.196 51.6864 34.317C53.2335 33.438 55.1673 33.9654 56.0463 35.4773C56.9253 36.9892 56.4331 38.9582 54.886 39.8372Z" fill="black"/>
<path d="M80.5886 47.3264C78.4789 47.3264 76.756 45.6036 76.756 43.4939C76.756 41.3843 78.4789 39.6614 80.5886 39.6614C82.6982 39.6614 84.4211 41.3843 84.4211 43.4939C84.4211 45.6036 82.7334 47.3264 80.5886 47.3264Z" fill="black"/>
<path d="M78.0219 28.7264C75.5606 30.1328 72.4313 29.2889 71.0248 26.8628C69.6184 24.4016 70.4623 21.2723 72.8884 19.8659C75.3496 18.4594 78.4789 19.3033 79.8854 21.7294C81.2918 24.1906 80.4479 27.3199 78.0219 28.7264Z" fill="black"/>
<path d="M64.731 12.1656C63.6762 13.994 61.3204 14.6269 59.4921 13.5721C57.6637 12.5172 57.0308 10.1615 58.0856 8.33311C59.1405 6.50475 61.4962 5.87186 63.3246 6.92668C65.153 7.9815 65.7859 10.3373 64.731 12.1656Z" fill="black"/>
<path d="M47.3265 5.09832C47.3265 7.91118 45.041 10.1966 42.2281 10.1966C39.4153 10.1966 37.1298 7.91118 37.1298 5.09832C37.1298 2.28545 39.4153 0 42.2281 0C45.041 0 47.3265 2.28545 47.3265 5.09832Z" fill="black"/>
<path d="M26.3706 8.33311C27.4254 10.1615 26.7925 12.5172 24.9642 13.5721C23.1358 14.6269 20.78 13.994 19.7252 12.1656C18.6704 10.3373 19.3033 7.9815 21.1316 6.92668C22.96 5.87186 25.3158 6.50475 26.3706 8.33311Z" fill="black"/>
<path d="M67.79 46.6584C66.032 46.6584 64.5904 45.2168 64.5904 43.4588C64.5904 41.7007 66.032 40.2591 67.79 40.2591C69.5481 40.2591 70.9897 41.7007 70.9897 43.4588C70.9897 45.252 69.5832 46.6584 67.79 46.6584Z" fill="black"/>
<path d="M65.9617 33.4379C64.4498 34.317 62.4807 33.7895 61.6017 32.2776C60.7227 30.7657 61.2501 28.7967 62.762 27.9177C64.3091 27.0387 66.243 27.5661 67.122 29.078C68.001 30.5899 67.5087 32.5589 65.9617 33.4379Z" fill="black"/>
<path d="M57.7692 22.9248C56.8902 24.4367 54.9212 24.9642 53.4093 24.0851C51.8974 23.2061 51.37 21.2371 52.249 19.7252C53.128 18.2133 55.097 17.6859 56.6089 18.5649C58.156 19.4439 58.6834 21.3778 57.7692 22.9248Z" fill="black"/>
<path d="M45.4278 17.8968C45.4278 19.6549 43.9862 21.0965 42.2281 21.0965C40.4701 21.0965 39.0285 19.6549 39.0285 17.8968C39.0285 16.1388 40.4701 14.6972 42.2281 14.6972C43.9862 14.6972 45.4278 16.1388 45.4278 17.8968Z" fill="black"/>
<path d="M32.2073 19.7252C33.0863 21.2371 32.5589 23.2061 31.047 24.0852C29.5351 24.9642 27.5661 24.4368 26.6871 22.9248C25.808 21.3778 26.3354 19.4439 27.8474 18.5649C29.3593 17.6859 31.3283 18.1781 32.2073 19.7252Z" fill="black"/>
<path d="M45.4278 30.6954C45.4278 32.4534 43.9862 33.895 42.2281 33.895C40.4701 33.895 39.0285 32.4534 39.0285 30.6954C39.0285 28.9374 40.4701 27.4958 42.2281 27.4958C43.9862 27.4958 45.4278 28.9022 45.4278 30.6954Z" fill="black"/>
<path d="M32.7347 34.317C32.7347 34.317 24.4719 29.8164 21.87 28.0583C19.8307 26.6871 15.1191 22.8194 12.8337 20.9207C12.4821 20.4988 12.025 20.1471 11.5327 19.8307C9.07149 18.4243 5.94217 19.2681 4.53574 21.6942C3.12931 24.1555 3.97317 27.2848 6.39927 28.6912C6.89152 28.9725 7.45409 29.1835 7.9815 29.289C10.7592 30.3086 16.4201 32.4534 18.6001 33.5434C21.4481 34.9147 29.4999 39.8372 29.4999 39.8372C31.047 40.7162 32.9808 40.1888 33.8599 38.6769C34.8092 37.165 34.2818 35.196 32.7347 34.317Z" fill="black"/>
<path d="M33.9302 48.2758C33.0512 46.7639 31.0822 46.2365 29.5703 47.1155C29.5703 47.1155 21.5536 52.038 18.7407 53.3741C16.5256 54.4289 10.8295 56.6089 8.05184 57.6286C7.52442 57.7341 6.96185 57.9099 6.4696 58.2263H6.43444H6.39928C4.07867 59.6327 3.12932 62.7621 4.53576 65.2233C5.94219 67.6846 9.0715 68.4933 11.4976 67.0868H11.4624H11.5328C12.025 66.8055 12.4821 66.4188 12.8689 65.9968C15.1543 64.0982 19.8307 60.3008 21.8349 58.9295C24.4368 57.1715 32.7347 52.6357 32.7347 52.6357C34.2818 51.7567 34.8092 49.7877 33.9302 48.2758Z" fill="black"/>
<path d="M47.0451 80.1666C46.5529 77.2483 45.5684 71.3061 45.3926 68.88C45.1816 65.821 45.3926 56.855 45.3926 56.2924V56.2573C45.3926 54.4992 43.951 53.0576 42.193 53.0576C40.4349 53.0576 38.9933 54.4992 38.9933 56.2573C38.9933 56.2573 39.2395 65.6452 38.9933 68.7745C38.8175 71.2358 37.833 77.2483 37.3408 80.1666C37.165 80.694 37.0595 81.1863 37.0595 81.7489V81.7137C37.0595 84.7024 39.3449 86.8824 42.1578 86.8824C44.9707 86.8824 47.2561 84.6321 47.2561 81.784C47.3264 81.2215 47.221 80.694 47.0451 80.1666Z" fill="black"/>
<path d="M78.0218 58.2263C77.4944 57.945 76.967 57.7341 76.4044 57.6286C73.6267 56.5737 68.001 54.4641 65.821 53.4093C63.1136 52.1083 55.6244 47.5374 54.9563 47.1507L54.9212 47.1155C53.3741 46.2365 51.4403 46.7639 50.5612 48.2758C49.6822 49.7877 50.2096 51.7567 51.7215 52.6357C51.7215 52.6357 59.9843 57.1363 62.5862 58.8944C64.6256 60.2656 69.3371 64.1333 71.6577 66.032C72.0093 66.4188 72.4313 66.8055 72.9235 67.0868C72.9587 67.0868 72.9587 67.122 72.9587 67.122C75.4199 68.5284 78.5492 67.6846 79.9557 65.2585C81.2918 62.7621 80.4479 59.6327 78.0218 58.2263Z" fill="black"/>
<path d="M19.8307 43.4588C19.8307 41.771 18.4946 40.3998 16.842 40.2943C16.842 40.2943 16.8069 40.2943 16.7717 40.2943C16.7365 40.2943 16.6662 40.2943 16.6311 40.2943C16.5256 40.2943 16.4201 40.3294 16.3146 40.3294C13.8885 40.3646 5.06316 39.7669 3.83253 39.6614C1.72288 39.6614 0 41.3843 0 43.4939C0 45.6036 1.72288 47.3264 3.83253 47.3264C3.90285 47.3264 3.97317 47.3264 4.04349 47.2913C4.07865 47.2913 4.14897 47.2561 4.25446 47.2561C4.3951 47.2561 4.53574 47.221 4.67639 47.221C6.997 46.9748 14.3808 46.5881 16.4201 46.6584C16.4904 46.6584 16.5607 46.6935 16.6662 46.6935C16.7014 46.6935 16.7365 46.6935 16.7717 46.6935C16.8069 46.6935 16.842 46.6935 16.8772 46.6935C16.8772 46.6935 16.8772 46.6935 16.8772 46.6584C18.5297 46.5529 19.8307 45.1816 19.8307 43.4588Z" fill="black"/>
<path d="M31.047 62.8675C29.5702 62.0237 27.7067 62.4808 26.7925 63.8872C26.7925 63.8872 26.7925 63.9224 26.7574 63.9575C26.7222 63.9927 26.687 64.0278 26.687 64.063C26.6167 64.1685 26.6167 64.2388 26.5464 64.3443C25.3509 66.4539 20.4284 73.8026 19.7252 74.8222C18.6704 76.6506 19.3033 79.0063 21.1316 80.0612C22.96 81.116 25.3158 80.4831 26.3706 78.6547C26.4058 78.5844 26.4058 78.5493 26.4409 78.4789C26.4409 78.4438 26.4761 78.3735 26.5112 78.3031C26.5816 78.1625 26.6167 78.057 26.687 77.9164C27.6364 75.7716 31.0118 69.2316 32.0666 67.4736C32.1018 67.4033 32.1721 67.3681 32.2073 67.2978C32.2073 67.2626 32.2424 67.2275 32.2424 67.2275C32.2776 67.1923 32.2776 67.1572 32.3128 67.1572C32.3128 67.1572 32.3128 67.1572 32.2776 67.1572C33.016 65.5398 32.4886 63.7114 31.047 62.8675Z" fill="black"/>
<path d="M53.4093 62.8675C51.9325 63.7114 51.4051 65.5397 52.1435 67.0517L52.1787 67.0868C52.2138 67.122 52.2138 67.1571 52.249 67.2275C52.3193 67.3329 52.3545 67.4033 52.4248 67.4736C53.6554 69.5481 57.5934 77.4944 58.0857 78.6196C59.1405 80.4479 61.4963 81.0808 63.3246 80.026C65.153 78.9712 65.7859 76.6154 64.7311 74.787C64.6959 74.7167 64.6607 74.6816 64.6256 74.6112C64.5904 74.5761 64.5553 74.5058 64.4849 74.4706C64.4146 74.3651 64.3091 74.2245 64.2388 74.119C62.8675 72.2203 58.8592 66.032 57.8747 64.2388C57.8395 64.1685 57.8044 64.0982 57.7692 64.0278C57.7692 63.9927 57.7341 63.9927 57.6989 63.9575C57.6989 63.9224 57.6637 63.8872 57.6637 63.852C56.7496 62.4808 54.886 62.0237 53.4093 62.8675Z" fill="black"/>
</svg>
