<svg width="228" height="87" viewBox="0 0 228 87" fill="none" xmlns="http://www.w3.org/2000/svg">
<path d="M54.886 39.8372C53.3741 40.7162 51.4051 40.1888 50.5261 38.6769C49.6471 37.165 50.1745 35.196 51.6864 34.317C53.2335 33.438 55.1673 33.9654 56.0463 35.4773C56.9254 36.9892 56.4331 38.9582 54.886 39.8372Z" fill="black"/>
<path d="M80.5886 47.3264C78.4789 47.3264 76.756 45.6036 76.756 43.4939C76.756 41.3843 78.4789 39.6614 80.5886 39.6614C82.6982 39.6614 84.4211 41.3843 84.4211 43.4939C84.4211 45.6036 82.7334 47.3264 80.5886 47.3264Z" fill="black"/>
<path d="M78.0218 28.7264C75.5606 30.1328 72.4313 29.2889 71.0248 26.8628C69.6184 24.4016 70.4623 21.2723 72.8884 19.8659C75.3496 18.4594 78.4789 19.3033 79.8854 21.7294C81.2918 24.1906 80.4479 27.3199 78.0218 28.7264Z" fill="black"/>
<path d="M64.731 12.1656C63.6762 13.994 61.3204 14.6269 59.4921 13.5721C57.6637 12.5172 57.0308 10.1615 58.0857 8.33311C59.1405 6.50475 61.4963 5.87186 63.3246 6.92668C65.153 7.9815 65.7859 10.3373 64.731 12.1656Z" fill="black"/>
<path d="M47.3264 5.09832C47.3264 7.91118 45.041 10.1966 42.2281 10.1966C39.4153 10.1966 37.1298 7.91118 37.1298 5.09832C37.1298 2.28545 39.4153 0 42.2281 0C45.041 0 47.3264 2.28545 47.3264 5.09832Z" fill="black"/>
<path d="M26.3706 8.33311C27.4254 10.1615 26.7925 12.5172 24.9642 13.5721C23.1358 14.6269 20.78 13.994 19.7252 12.1656C18.6704 10.3373 19.3033 7.9815 21.1316 6.92668C22.96 5.87186 25.3158 6.50475 26.3706 8.33311Z" fill="black"/>
<path d="M67.79 46.6584C66.032 46.6584 64.5904 45.2168 64.5904 43.4588C64.5904 41.7007 66.032 40.2591 67.79 40.2591C69.5481 40.2591 70.9897 41.7007 70.9897 43.4588C70.9897 45.252 69.5832 46.6584 67.79 46.6584Z" fill="black"/>
<path d="M65.9617 33.4379C64.4498 34.317 62.4808 33.7895 61.6017 32.2776C60.7227 30.7657 61.2501 28.7967 62.762 27.9177C64.3091 27.0387 66.243 27.5661 67.122 29.078C68.001 30.5899 67.5088 32.5589 65.9617 33.4379Z" fill="black"/>
<path d="M57.7692 22.9248C56.8902 24.4367 54.9212 24.9642 53.4093 24.0851C51.8974 23.2061 51.3699 21.2371 52.249 19.7252C53.128 18.2133 55.097 17.6859 56.6089 18.5649C58.156 19.4439 58.6834 21.3778 57.7692 22.9248Z" fill="black"/>
<path d="M45.4278 17.8968C45.4278 19.6549 43.9862 21.0965 42.2281 21.0965C40.4701 21.0965 39.0285 19.6549 39.0285 17.8968C39.0285 16.1388 40.4701 14.6972 42.2281 14.6972C43.9862 14.6972 45.4278 16.1388 45.4278 17.8968Z" fill="black"/>
<path d="M32.2073 19.7252C33.0863 21.2371 32.5589 23.2061 31.047 24.0852C29.5351 24.9642 27.5661 24.4368 26.6871 22.9248C25.808 21.3778 26.3354 19.4439 27.8474 18.5649C29.3593 17.6859 31.3283 18.1781 32.2073 19.7252Z" fill="black"/>
<path d="M45.4278 30.6954C45.4278 32.4534 43.9862 33.895 42.2281 33.895C40.4701 33.895 39.0285 32.4534 39.0285 30.6954C39.0285 28.9374 40.4701 27.4958 42.2281 27.4958C43.9862 27.4958 45.4278 28.9022 45.4278 30.6954Z" fill="black"/>
<path d="M32.7347 34.317C32.7347 34.317 24.4719 29.8164 21.87 28.0583C19.8307 26.6871 15.1191 22.8194 12.8337 20.9207C12.4821 20.4988 12.025 20.1471 11.5327 19.8307C9.07149 18.4243 5.94217 19.2681 4.53574 21.6942C3.12931 24.1555 3.97317 27.2848 6.39927 28.6912C6.89152 28.9725 7.45409 29.1835 7.9815 29.289C10.7592 30.3086 16.4201 32.4534 18.6001 33.5434C21.4481 34.9147 29.4999 39.8372 29.4999 39.8372C31.047 40.7162 32.9808 40.1888 33.8599 38.6769C34.8092 37.165 34.2818 35.196 32.7347 34.317Z" fill="black"/>
<path d="M33.9302 48.2758C33.0512 46.7639 31.0822 46.2365 29.5702 47.1155C29.5702 47.1155 21.5536 52.038 18.7407 53.3741C16.5256 54.4289 10.8295 56.6089 8.05182 57.6286C7.52441 57.7341 6.96184 57.9099 6.46958 58.2263H6.43442H6.39926C4.07865 59.6327 3.12931 62.7621 4.53574 65.2233C5.94217 67.6846 9.07149 68.4933 11.4976 67.0868H11.4624H11.5327C12.025 66.8055 12.4821 66.4188 12.8689 65.9968C15.1543 64.0982 19.8307 60.3008 21.8349 58.9295C24.4368 57.1715 32.7347 52.6357 32.7347 52.6357C34.2818 51.7567 34.8092 49.7877 33.9302 48.2758Z" fill="black"/>
<path d="M47.0452 80.1666C46.5529 77.2483 45.5684 71.3061 45.3926 68.88C45.1816 65.821 45.3926 56.855 45.3926 56.2924V56.2573C45.3926 54.4992 43.951 53.0576 42.193 53.0576C40.4349 53.0576 38.9933 54.4992 38.9933 56.2573C38.9933 56.2573 39.2395 65.6452 38.9933 68.7745C38.8175 71.2358 37.833 77.2483 37.3408 80.1666C37.165 80.694 37.0595 81.1863 37.0595 81.7489V81.7137C37.0595 84.7024 39.3449 86.8824 42.1578 86.8824C44.9707 86.8824 47.2561 84.6321 47.2561 81.784C47.3265 81.2215 47.221 80.694 47.0452 80.1666Z" fill="black"/>
<path d="M78.0218 58.2263C77.4944 57.945 76.967 57.7341 76.4044 57.6286C73.6267 56.5737 68.001 54.4641 65.821 53.4093C63.1137 52.1083 55.6244 47.5374 54.9563 47.1507L54.9212 47.1155C53.3741 46.2365 51.4403 46.7639 50.5612 48.2758C49.6822 49.7877 50.2096 51.7567 51.7216 52.6357C51.7216 52.6357 59.9843 57.1363 62.5862 58.8944C64.6256 60.2656 69.3371 64.1333 71.6577 66.032C72.0093 66.4188 72.4313 66.8055 72.9235 67.0868C72.9587 67.0868 72.9587 67.122 72.9587 67.122C75.4199 68.5284 78.5493 67.6846 79.9557 65.2585C81.2918 62.7621 80.4479 59.6327 78.0218 58.2263Z" fill="black"/>
<path d="M19.8307 43.4588C19.8307 41.771 18.4946 40.3998 16.842 40.2943C16.842 40.2943 16.8069 40.2943 16.7717 40.2943C16.7365 40.2943 16.6662 40.2943 16.6311 40.2943C16.5256 40.2943 16.4201 40.3294 16.3146 40.3294C13.8885 40.3646 5.06316 39.7669 3.83253 39.6614C1.72288 39.6614 0 41.3843 0 43.4939C0 45.6036 1.72288 47.3264 3.83253 47.3264C3.90285 47.3264 3.97317 47.3264 4.04349 47.2913C4.07865 47.2913 4.14897 47.2561 4.25446 47.2561C4.3951 47.2561 4.53574 47.221 4.67639 47.221C6.997 46.9748 14.3808 46.5881 16.4201 46.6584C16.4904 46.6584 16.5607 46.6935 16.6662 46.6935C16.7014 46.6935 16.7365 46.6935 16.7717 46.6935C16.8069 46.6935 16.842 46.6935 16.8772 46.6935C16.8772 46.6935 16.8772 46.6935 16.8772 46.6584C18.5297 46.5529 19.8307 45.1816 19.8307 43.4588Z" fill="black"/>
<path d="M31.047 62.8675C29.5702 62.0237 27.7067 62.4808 26.7925 63.8872C26.7925 63.8872 26.7925 63.9224 26.7574 63.9575C26.7222 63.9927 26.687 64.0278 26.687 64.063C26.6167 64.1685 26.6167 64.2388 26.5464 64.3443C25.3509 66.4539 20.4284 73.8026 19.7252 74.8222C18.6704 76.6506 19.3033 79.0063 21.1316 80.0612C22.96 81.116 25.3158 80.4831 26.3706 78.6547C26.4058 78.5844 26.4058 78.5493 26.4409 78.4789C26.4409 78.4438 26.4761 78.3735 26.5112 78.3031C26.5816 78.1625 26.6167 78.057 26.687 77.9164C27.6364 75.7716 31.0118 69.2316 32.0667 67.4736C32.1018 67.4033 32.1721 67.3681 32.2073 67.2978C32.2073 67.2626 32.2425 67.2275 32.2425 67.2275C32.2776 67.1923 32.2776 67.1572 32.3128 67.1572C32.3128 67.1572 32.3128 67.1572 32.2776 67.1572C33.016 65.5398 32.4886 63.7114 31.047 62.8675Z" fill="black"/>
<path d="M53.4093 62.8675C51.9325 63.7114 51.4051 65.5397 52.1435 67.0517L52.1786 67.0868C52.2138 67.122 52.2138 67.1571 52.249 67.2275C52.3193 67.3329 52.3544 67.4033 52.4248 67.4736C53.6554 69.5481 57.5934 77.4944 58.0857 78.6196C59.1405 80.4479 61.4963 81.0808 63.3246 80.026C65.153 78.9712 65.7859 76.6154 64.7311 74.787C64.6959 74.7167 64.6607 74.6816 64.6256 74.6112C64.5904 74.5761 64.5552 74.5058 64.4849 74.4706C64.4146 74.3651 64.3091 74.2245 64.2388 74.119C62.8675 72.2203 58.8592 66.032 57.8747 64.2388C57.8395 64.1685 57.8044 64.0982 57.7692 64.0278C57.7692 63.9927 57.7341 63.9927 57.6989 63.9575C57.6989 63.9224 57.6637 63.8872 57.6637 63.852C56.7495 62.4808 54.886 62.0237 53.4093 62.8675Z" fill="black"/>
<path d="M112.536 27.118C112.536 27.394 112.44 27.634 112.248 27.838C112.056 28.042 111.804 28.144 111.492 28.144C111.204 28.144 110.958 28.042 110.754 27.838C110.562 27.634 110.466 27.394 110.466 27.118V21.124L107.406 27.568C107.226 27.952 106.926 28.144 106.506 28.144C106.098 28.144 105.798 27.952 105.606 27.568L102.51 21.124V27.1C102.51 27.376 102.408 27.622 102.204 27.838C102 28.042 101.754 28.144 101.466 28.144C101.19 28.144 100.95 28.042 100.746 27.838C100.542 27.622 100.44 27.376 100.44 27.1V16.894C100.44 16.618 100.536 16.378 100.728 16.174C100.92 15.97 101.166 15.868 101.466 15.868C101.706 15.868 101.904 15.934 102.06 16.066C102.216 16.186 102.342 16.336 102.438 16.516L106.506 24.958L110.538 16.516C110.634 16.324 110.76 16.168 110.916 16.048C111.084 15.928 111.276 15.868 111.492 15.868C111.816 15.868 112.068 15.964 112.248 16.156C112.44 16.348 112.536 16.6 112.536 16.912V27.118Z" fill="black"/>
<path d="M124.327 26.992C124.327 27.28 124.225 27.52 124.021 27.712C123.817 27.904 123.571 28 123.283 28H116.533C116.221 28 115.957 27.898 115.741 27.694C115.525 27.478 115.417 27.214 115.417 26.902V17.11C115.417 16.798 115.525 16.54 115.741 16.336C115.957 16.12 116.221 16.012 116.533 16.012H123.013C123.301 16.012 123.547 16.108 123.751 16.3C123.955 16.492 124.057 16.732 124.057 17.02C124.057 17.308 123.955 17.554 123.751 17.758C123.547 17.95 123.301 18.046 123.013 18.046H117.613V20.908H120.583C120.859 20.908 121.099 21.01 121.303 21.214C121.507 21.406 121.609 21.646 121.609 21.934C121.609 22.222 121.507 22.462 121.303 22.654C121.099 22.846 120.859 22.942 120.583 22.942H117.613V25.966H123.283C123.571 25.966 123.817 26.068 124.021 26.272C124.225 26.464 124.327 26.704 124.327 26.992ZM120.619 12.178C120.859 12.178 121.057 12.256 121.213 12.412C121.369 12.556 121.447 12.76 121.447 13.024C121.447 13.12 121.429 13.216 121.393 13.312C121.357 13.396 121.309 13.474 121.249 13.546L120.439 14.644C120.355 14.752 120.259 14.836 120.151 14.896C120.055 14.956 119.917 14.986 119.737 14.986C119.533 14.986 119.335 14.908 119.143 14.752C118.963 14.584 118.873 14.386 118.873 14.158C118.873 13.966 118.945 13.786 119.089 13.618L119.935 12.52C120.019 12.412 120.109 12.328 120.205 12.268C120.313 12.208 120.451 12.178 120.619 12.178Z" fill="black"/>
<path d="M136.701 22.006C136.701 22.846 136.557 23.632 136.269 24.364C135.993 25.084 135.597 25.714 135.081 26.254C134.565 26.794 133.935 27.22 133.191 27.532C132.459 27.844 131.637 28 130.725 28H127.431C127.119 28 126.855 27.892 126.639 27.676C126.423 27.46 126.315 27.196 126.315 26.884V17.11C126.315 16.798 126.423 16.54 126.639 16.336C126.855 16.12 127.119 16.012 127.431 16.012H130.725C131.637 16.012 132.459 16.168 133.191 16.48C133.935 16.792 134.565 17.218 135.081 17.758C135.597 18.298 135.993 18.934 136.269 19.666C136.557 20.386 136.701 21.166 136.701 22.006ZM134.505 22.006C134.505 21.43 134.415 20.902 134.235 20.422C134.067 19.93 133.815 19.51 133.479 19.162C133.155 18.802 132.753 18.526 132.273 18.334C131.793 18.142 131.241 18.046 130.617 18.046H128.511V25.966H130.617C131.241 25.966 131.793 25.87 132.273 25.678C132.753 25.486 133.155 25.216 133.479 24.868C133.815 24.508 134.067 24.088 134.235 23.608C134.415 23.116 134.505 22.582 134.505 22.006Z" fill="black"/>
<path d="M141.187 27.028C141.187 27.34 141.085 27.604 140.881 27.82C140.677 28.036 140.419 28.144 140.107 28.144C139.795 28.144 139.531 28.036 139.315 27.82C139.099 27.604 138.991 27.34 138.991 27.028V16.984C138.991 16.672 139.099 16.408 139.315 16.192C139.531 15.976 139.795 15.868 140.107 15.868C140.419 15.868 140.677 15.976 140.881 16.192C141.085 16.408 141.187 16.672 141.187 16.984V27.028Z" fill="black"/>
<path d="M149.557 26.182C150.169 26.182 150.673 26.086 151.069 25.894C151.477 25.69 151.855 25.456 152.203 25.192C152.443 25.024 152.683 24.94 152.923 24.94C153.235 24.94 153.475 25.042 153.643 25.246C153.823 25.438 153.913 25.672 153.913 25.948C153.913 26.212 153.799 26.458 153.571 26.686C153.319 26.95 153.031 27.178 152.707 27.37C152.395 27.562 152.059 27.724 151.699 27.856C151.351 27.976 150.991 28.066 150.619 28.126C150.259 28.186 149.905 28.216 149.557 28.216C148.669 28.216 147.853 28.072 147.109 27.784C146.365 27.484 145.717 27.064 145.165 26.524C144.625 25.984 144.199 25.33 143.887 24.562C143.587 23.794 143.437 22.942 143.437 22.006C143.437 21.07 143.587 20.218 143.887 19.45C144.199 18.682 144.625 18.028 145.165 17.488C145.717 16.948 146.365 16.534 147.109 16.246C147.853 15.946 148.669 15.796 149.557 15.796C149.905 15.796 150.259 15.826 150.619 15.886C150.991 15.946 151.351 16.042 151.699 16.174C152.059 16.294 152.395 16.45 152.707 16.642C153.031 16.834 153.319 17.062 153.571 17.326C153.799 17.554 153.913 17.8 153.913 18.064C153.913 18.34 153.823 18.58 153.643 18.784C153.475 18.976 153.235 19.072 152.923 19.072C152.683 19.072 152.443 18.988 152.203 18.82C151.855 18.556 151.477 18.328 151.069 18.136C150.673 17.932 150.169 17.83 149.557 17.83C148.969 17.83 148.435 17.938 147.955 18.154C147.475 18.358 147.061 18.646 146.713 19.018C146.377 19.39 146.113 19.834 145.921 20.35C145.741 20.854 145.651 21.406 145.651 22.006C145.651 22.606 145.741 23.164 145.921 23.68C146.113 24.184 146.377 24.622 146.713 24.994C147.061 25.366 147.475 25.66 147.955 25.876C148.435 26.08 148.969 26.182 149.557 26.182Z" fill="black"/>
<path d="M163.633 25.354H158.305L157.279 27.55C157.183 27.73 157.063 27.874 156.919 27.982C156.787 28.09 156.601 28.144 156.361 28.144C156.037 28.144 155.779 28.042 155.587 27.838C155.407 27.622 155.317 27.382 155.317 27.118C155.317 26.974 155.353 26.83 155.425 26.686L160.033 16.444C160.201 16.06 160.513 15.868 160.969 15.868C161.425 15.868 161.737 16.06 161.905 16.444L166.513 26.686C166.585 26.83 166.621 26.974 166.621 27.118C166.621 27.382 166.525 27.622 166.333 27.838C166.153 28.042 165.901 28.144 165.577 28.144C165.337 28.144 165.145 28.096 165.001 28C164.869 27.892 164.755 27.742 164.659 27.55L163.633 25.354ZM160.969 18.496L159.097 23.428H162.841L160.969 18.496Z" fill="black"/>
<path d="M180.757 27.118C180.757 27.394 180.661 27.634 180.469 27.838C180.277 28.042 180.025 28.144 179.713 28.144C179.425 28.144 179.179 28.042 178.975 27.838C178.783 27.634 178.687 27.394 178.687 27.118V21.124L175.627 27.568C175.447 27.952 175.147 28.144 174.727 28.144C174.319 28.144 174.019 27.952 173.827 27.568L170.731 21.124V27.1C170.731 27.376 170.629 27.622 170.425 27.838C170.221 28.042 169.975 28.144 169.687 28.144C169.411 28.144 169.171 28.042 168.967 27.838C168.763 27.622 168.661 27.376 168.661 27.1V16.894C168.661 16.618 168.757 16.378 168.949 16.174C169.141 15.97 169.387 15.868 169.687 15.868C169.927 15.868 170.125 15.934 170.281 16.066C170.437 16.186 170.563 16.336 170.659 16.516L174.727 24.958L178.759 16.516C178.855 16.324 178.981 16.168 179.137 16.048C179.305 15.928 179.497 15.868 179.713 15.868C180.037 15.868 180.289 15.964 180.469 16.156C180.661 16.348 180.757 16.6 180.757 16.912V27.118Z" fill="black"/>
<path d="M192.547 26.992C192.547 27.28 192.445 27.52 192.241 27.712C192.037 27.904 191.791 28 191.503 28H184.753C184.441 28 184.177 27.898 183.961 27.694C183.745 27.478 183.637 27.214 183.637 26.902V17.11C183.637 16.798 183.745 16.54 183.961 16.336C184.177 16.12 184.441 16.012 184.753 16.012H191.233C191.521 16.012 191.767 16.108 191.971 16.3C192.175 16.492 192.277 16.732 192.277 17.02C192.277 17.308 192.175 17.554 191.971 17.758C191.767 17.95 191.521 18.046 191.233 18.046H185.833V20.908H188.803C189.079 20.908 189.319 21.01 189.523 21.214C189.727 21.406 189.829 21.646 189.829 21.934C189.829 22.222 189.727 22.462 189.523 22.654C189.319 22.846 189.079 22.942 188.803 22.942H185.833V25.966H191.503C191.791 25.966 192.037 26.068 192.241 26.272C192.445 26.464 192.547 26.704 192.547 26.992Z" fill="black"/>
<path d="M204.652 27.118C204.652 27.394 204.556 27.634 204.364 27.838C204.172 28.042 203.92 28.144 203.608 28.144C203.272 28.144 203.008 28.018 202.816 27.766L196.606 19.918V27.118C196.606 27.406 196.504 27.652 196.3 27.856C196.096 28.048 195.85 28.144 195.562 28.144C195.286 28.144 195.046 28.042 194.842 27.838C194.638 27.634 194.536 27.394 194.536 27.118V16.912C194.536 16.636 194.632 16.396 194.824 16.192C195.016 15.976 195.28 15.868 195.616 15.868C195.76 15.868 195.898 15.904 196.03 15.976C196.174 16.048 196.288 16.138 196.372 16.246L202.582 24.094V16.912C202.582 16.636 202.672 16.396 202.852 16.192C203.044 15.976 203.296 15.868 203.608 15.868C203.92 15.868 204.172 15.976 204.364 16.192C204.556 16.396 204.652 16.636 204.652 16.912V27.118Z" fill="black"/>
<path d="M216.904 17.056C216.904 17.332 216.802 17.572 216.598 17.776C216.406 17.98 216.16 18.082 215.86 18.082H212.782V27.028C212.782 27.34 212.674 27.604 212.458 27.82C212.242 28.036 211.978 28.144 211.666 28.144C211.354 28.144 211.096 28.036 210.892 27.82C210.688 27.604 210.586 27.34 210.586 27.028V18.082H207.49C207.202 18.082 206.956 17.98 206.752 17.776C206.548 17.572 206.446 17.332 206.446 17.056C206.446 16.768 206.542 16.522 206.734 16.318C206.938 16.114 207.19 16.012 207.49 16.012H215.86C216.148 16.012 216.394 16.114 216.598 16.318C216.802 16.522 216.904 16.768 216.904 17.056Z" fill="black"/>
<path d="M227.582 24.652C227.582 25.18 227.48 25.66 227.276 26.092C227.084 26.524 226.79 26.902 226.394 27.226C226.01 27.538 225.53 27.784 224.954 27.964C224.378 28.132 223.706 28.216 222.938 28.216C222.206 28.216 221.462 28.108 220.706 27.892C219.95 27.676 219.308 27.364 218.78 26.956C218.6 26.812 218.45 26.656 218.33 26.488C218.222 26.308 218.168 26.116 218.168 25.912C218.168 25.636 218.252 25.414 218.42 25.246C218.588 25.066 218.81 24.976 219.086 24.976C219.278 24.976 219.464 25.03 219.644 25.138C219.884 25.294 220.112 25.444 220.328 25.588C220.556 25.72 220.79 25.84 221.03 25.948C221.282 26.056 221.564 26.14 221.876 26.2C222.188 26.26 222.554 26.29 222.974 26.29C223.838 26.29 224.456 26.14 224.828 25.84C225.2 25.54 225.386 25.186 225.386 24.778C225.386 24.562 225.338 24.37 225.242 24.202C225.146 24.022 224.984 23.86 224.756 23.716C224.54 23.56 224.246 23.416 223.874 23.284C223.514 23.152 223.064 23.014 222.524 22.87C221.708 22.654 221.03 22.426 220.49 22.186C219.95 21.934 219.518 21.664 219.194 21.376C218.87 21.076 218.636 20.746 218.492 20.386C218.36 20.026 218.294 19.618 218.294 19.162C218.294 18.61 218.408 18.124 218.636 17.704C218.864 17.284 219.182 16.936 219.59 16.66C220.01 16.372 220.508 16.156 221.084 16.012C221.672 15.868 222.326 15.796 223.046 15.796C223.37 15.796 223.736 15.826 224.144 15.886C224.564 15.934 224.966 16.012 225.35 16.12C225.554 16.18 225.764 16.258 225.98 16.354C226.208 16.438 226.412 16.546 226.592 16.678C226.772 16.798 226.922 16.936 227.042 17.092C227.162 17.248 227.222 17.416 227.222 17.596C227.222 17.836 227.15 18.064 227.006 18.28C226.862 18.484 226.634 18.586 226.322 18.586C226.154 18.586 226.01 18.556 225.89 18.496C225.47 18.304 225.038 18.13 224.594 17.974C224.15 17.818 223.64 17.74 223.064 17.74C222.26 17.74 221.63 17.854 221.174 18.082C220.718 18.298 220.49 18.64 220.49 19.108C220.49 19.324 220.538 19.516 220.634 19.684C220.73 19.84 220.892 19.984 221.12 20.116C221.348 20.248 221.642 20.38 222.002 20.512C222.374 20.632 222.83 20.77 223.37 20.926C223.982 21.106 224.546 21.292 225.062 21.484C225.578 21.676 226.022 21.916 226.394 22.204C226.766 22.48 227.054 22.816 227.258 23.212C227.474 23.596 227.582 24.076 227.582 24.652Z" fill="black"/>
<path d="M110.556 47.118C110.556 47.394 110.46 47.634 110.268 47.838C110.076 48.042 109.824 48.144 109.512 48.144C109.176 48.144 108.912 48.018 108.72 47.766L102.51 39.918V47.118C102.51 47.406 102.408 47.652 102.204 47.856C102 48.048 101.754 48.144 101.466 48.144C101.19 48.144 100.95 48.042 100.746 47.838C100.542 47.634 100.44 47.394 100.44 47.118V36.912C100.44 36.636 100.536 36.396 100.728 36.192C100.92 35.976 101.184 35.868 101.52 35.868C101.664 35.868 101.802 35.904 101.934 35.976C102.078 36.048 102.192 36.138 102.276 36.246L108.486 44.094V36.912C108.486 36.636 108.576 36.396 108.756 36.192C108.948 35.976 109.2 35.868 109.512 35.868C109.824 35.868 110.076 35.976 110.268 36.192C110.46 36.396 110.556 36.636 110.556 36.912V47.118Z" fill="black"/>
<path d="M125.112 42.006C125.112 42.87 124.956 43.68 124.644 44.436C124.332 45.192 123.9 45.852 123.348 46.416C122.808 46.968 122.16 47.406 121.404 47.73C120.648 48.054 119.832 48.216 118.956 48.216C118.068 48.216 117.246 48.054 116.49 47.73C115.746 47.406 115.098 46.968 114.546 46.416C114.006 45.852 113.58 45.192 113.268 44.436C112.956 43.68 112.8 42.87 112.8 42.006C112.8 41.142 112.956 40.332 113.268 39.576C113.58 38.82 114.006 38.166 114.546 37.614C115.098 37.05 115.746 36.606 116.49 36.282C117.246 35.958 118.068 35.796 118.956 35.796C119.832 35.796 120.648 35.958 121.404 36.282C122.16 36.606 122.808 37.05 123.348 37.614C123.9 38.166 124.332 38.82 124.644 39.576C124.956 40.332 125.112 41.142 125.112 42.006ZM122.898 42.006C122.898 41.43 122.808 40.89 122.628 40.386C122.448 39.87 122.184 39.42 121.836 39.036C121.5 38.652 121.086 38.346 120.594 38.118C120.114 37.89 119.568 37.776 118.956 37.776C118.344 37.776 117.792 37.89 117.3 38.118C116.82 38.346 116.406 38.652 116.058 39.036C115.722 39.42 115.464 39.87 115.284 40.386C115.104 40.89 115.014 41.43 115.014 42.006C115.014 42.582 115.104 43.128 115.284 43.644C115.464 44.148 115.722 44.592 116.058 44.976C116.406 45.36 116.82 45.666 117.3 45.894C117.792 46.122 118.344 46.236 118.956 46.236C119.568 46.236 120.114 46.122 120.594 45.894C121.086 45.666 121.5 45.36 121.836 44.976C122.184 44.592 122.448 44.148 122.628 43.644C122.808 43.128 122.898 42.582 122.898 42.006Z" fill="black"/>
<path d="M136.85 36.894C136.85 37.026 136.82 37.17 136.76 37.326L132.314 47.55C132.23 47.73 132.104 47.874 131.936 47.982C131.768 48.09 131.582 48.144 131.378 48.144C131.174 48.144 130.988 48.096 130.82 48C130.652 47.892 130.526 47.742 130.442 47.55L125.978 37.326C125.918 37.182 125.888 37.044 125.888 36.912C125.888 36.636 125.984 36.396 126.176 36.192C126.38 35.976 126.62 35.868 126.896 35.868C127.1 35.868 127.286 35.922 127.454 36.03C127.634 36.126 127.766 36.27 127.85 36.462L131.36 44.832L134.906 36.462C134.99 36.282 135.11 36.138 135.266 36.03C135.434 35.922 135.62 35.868 135.824 35.868C136.112 35.868 136.352 35.97 136.544 36.174C136.748 36.378 136.85 36.618 136.85 36.894Z" fill="black"/>
<path d="M144.525 45.354H139.197L138.171 47.55C138.075 47.73 137.955 47.874 137.811 47.982C137.679 48.09 137.493 48.144 137.253 48.144C136.929 48.144 136.671 48.042 136.479 47.838C136.299 47.622 136.209 47.382 136.209 47.118C136.209 46.974 136.245 46.83 136.317 46.686L140.925 36.444C141.093 36.06 141.405 35.868 141.861 35.868C142.317 35.868 142.629 36.06 142.797 36.444L147.405 46.686C147.477 46.83 147.513 46.974 147.513 47.118C147.513 47.382 147.417 47.622 147.225 47.838C147.045 48.042 146.793 48.144 146.469 48.144C146.229 48.144 146.037 48.096 145.893 48C145.761 47.892 145.647 47.742 145.551 47.55L144.525 45.354ZM141.861 38.496L139.989 43.428H143.733L141.861 38.496Z" fill="black"/>
<path d="M157.226 37.056C157.226 37.332 157.124 37.572 156.92 37.776C156.728 37.98 156.482 38.082 156.182 38.082H153.104V47.028C153.104 47.34 152.996 47.604 152.78 47.82C152.564 48.036 152.3 48.144 151.988 48.144C151.676 48.144 151.418 48.036 151.214 47.82C151.01 47.604 150.908 47.34 150.908 47.028V38.082H147.812C147.524 38.082 147.278 37.98 147.074 37.776C146.87 37.572 146.768 37.332 146.768 37.056C146.768 36.768 146.864 36.522 147.056 36.318C147.26 36.114 147.512 36.012 147.812 36.012H156.182C156.47 36.012 156.716 36.114 156.92 36.318C157.124 36.522 157.226 36.768 157.226 37.056Z" fill="black"/>
<path d="M167.938 46.992C167.938 47.28 167.836 47.52 167.632 47.712C167.428 47.904 167.182 48 166.894 48H160.144C159.832 48 159.568 47.898 159.352 47.694C159.136 47.478 159.028 47.214 159.028 46.902V37.11C159.028 36.798 159.136 36.54 159.352 36.336C159.568 36.12 159.832 36.012 160.144 36.012H166.624C166.912 36.012 167.158 36.108 167.362 36.3C167.566 36.492 167.668 36.732 167.668 37.02C167.668 37.308 167.566 37.554 167.362 37.758C167.158 37.95 166.912 38.046 166.624 38.046H161.224V40.908H164.194C164.47 40.908 164.71 41.01 164.914 41.214C165.118 41.406 165.22 41.646 165.22 41.934C165.22 42.222 165.118 42.462 164.914 42.654C164.71 42.846 164.47 42.942 164.194 42.942H161.224V45.966H166.894C167.182 45.966 167.428 46.068 167.632 46.272C167.836 46.464 167.938 46.704 167.938 46.992Z" fill="black"/>
<path d="M177.866 36.984C177.866 36.672 177.968 36.408 178.172 36.192C178.388 35.976 178.652 35.868 178.964 35.868C179.276 35.868 179.534 35.976 179.738 36.192C179.954 36.408 180.062 36.672 180.062 36.984V43.158C180.062 43.938 179.942 44.64 179.702 45.264C179.474 45.876 179.138 46.404 178.694 46.848C178.25 47.292 177.71 47.634 177.074 47.874C176.45 48.102 175.736 48.216 174.932 48.216C174.128 48.216 173.408 48.102 172.772 47.874C172.136 47.634 171.596 47.292 171.152 46.848C170.72 46.404 170.384 45.876 170.144 45.264C169.916 44.64 169.802 43.938 169.802 43.158V36.984C169.802 36.672 169.904 36.408 170.108 36.192C170.324 35.976 170.588 35.868 170.9 35.868C171.212 35.868 171.47 35.976 171.674 36.192C171.89 36.408 171.998 36.672 171.998 36.984V43.392C171.998 44.232 172.244 44.916 172.736 45.444C173.228 45.972 173.96 46.236 174.932 46.236C175.904 46.236 176.636 45.972 177.128 45.444C177.62 44.916 177.866 44.232 177.866 43.392V36.984Z" fill="black"/>
<path d="M192.728 46.578C192.812 46.746 192.854 46.902 192.854 47.046C192.854 47.322 192.752 47.574 192.548 47.802C192.356 48.03 192.092 48.144 191.756 48.144C191.3 48.144 190.976 47.946 190.784 47.55L188.678 43.212H185.06V47.046C185.06 47.358 184.952 47.622 184.736 47.838C184.532 48.042 184.274 48.144 183.962 48.144C183.65 48.144 183.386 48.042 183.17 47.838C182.966 47.622 182.864 47.358 182.864 47.046V37.11C182.864 36.798 182.966 36.54 183.17 36.336C183.386 36.12 183.65 36.012 183.962 36.012H188.588C189.332 36.012 189.974 36.102 190.514 36.282C191.054 36.45 191.498 36.696 191.846 37.02C192.194 37.332 192.446 37.71 192.602 38.154C192.77 38.598 192.854 39.084 192.854 39.612C192.854 40.32 192.692 40.956 192.368 41.52C192.056 42.084 191.558 42.516 190.874 42.816L192.728 46.578ZM190.64 39.63C190.64 39.438 190.604 39.246 190.532 39.054C190.472 38.862 190.37 38.688 190.226 38.532C190.082 38.376 189.896 38.256 189.668 38.172C189.452 38.076 189.194 38.028 188.894 38.028H185.06V41.322H188.894C189.194 41.322 189.452 41.274 189.668 41.178C189.896 41.07 190.082 40.938 190.226 40.782C190.37 40.614 190.472 40.434 190.532 40.242C190.604 40.038 190.64 39.834 190.64 39.63Z" fill="black"/>
<path d="M204.273 44.652C204.273 45.18 204.171 45.66 203.967 46.092C203.775 46.524 203.481 46.902 203.085 47.226C202.701 47.538 202.221 47.784 201.645 47.964C201.069 48.132 200.397 48.216 199.629 48.216C198.897 48.216 198.153 48.108 197.397 47.892C196.641 47.676 195.999 47.364 195.471 46.956C195.291 46.812 195.141 46.656 195.021 46.488C194.913 46.308 194.859 46.116 194.859 45.912C194.859 45.636 194.943 45.414 195.111 45.246C195.279 45.066 195.501 44.976 195.777 44.976C195.969 44.976 196.155 45.03 196.335 45.138C196.575 45.294 196.803 45.444 197.019 45.588C197.247 45.72 197.481 45.84 197.721 45.948C197.973 46.056 198.255 46.14 198.567 46.2C198.879 46.26 199.245 46.29 199.665 46.29C200.529 46.29 201.147 46.14 201.519 45.84C201.891 45.54 202.077 45.186 202.077 44.778C202.077 44.562 202.029 44.37 201.933 44.202C201.837 44.022 201.675 43.86 201.447 43.716C201.231 43.56 200.937 43.416 200.565 43.284C200.205 43.152 199.755 43.014 199.215 42.87C198.399 42.654 197.721 42.426 197.181 42.186C196.641 41.934 196.209 41.664 195.885 41.376C195.561 41.076 195.327 40.746 195.183 40.386C195.051 40.026 194.985 39.618 194.985 39.162C194.985 38.61 195.099 38.124 195.327 37.704C195.555 37.284 195.873 36.936 196.281 36.66C196.701 36.372 197.199 36.156 197.775 36.012C198.363 35.868 199.017 35.796 199.737 35.796C200.061 35.796 200.427 35.826 200.835 35.886C201.255 35.934 201.657 36.012 202.041 36.12C202.245 36.18 202.455 36.258 202.671 36.354C202.899 36.438 203.103 36.546 203.283 36.678C203.463 36.798 203.613 36.936 203.733 37.092C203.853 37.248 203.913 37.416 203.913 37.596C203.913 37.836 203.841 38.064 203.697 38.28C203.553 38.484 203.325 38.586 203.013 38.586C202.845 38.586 202.701 38.556 202.581 38.496C202.161 38.304 201.729 38.13 201.285 37.974C200.841 37.818 200.331 37.74 199.755 37.74C198.951 37.74 198.321 37.854 197.865 38.082C197.409 38.298 197.181 38.64 197.181 39.108C197.181 39.324 197.229 39.516 197.325 39.684C197.421 39.84 197.583 39.984 197.811 40.116C198.039 40.248 198.333 40.38 198.693 40.512C199.065 40.632 199.521 40.77 200.061 40.926C200.673 41.106 201.237 41.292 201.753 41.484C202.269 41.676 202.713 41.916 203.085 42.204C203.457 42.48 203.745 42.816 203.949 43.212C204.165 43.596 204.273 44.076 204.273 44.652Z" fill="black"/>
<path d="M105.84 66.182C106.452 66.182 106.956 66.086 107.352 65.894C107.76 65.69 108.138 65.456 108.486 65.192C108.726 65.024 108.966 64.94 109.206 64.94C109.518 64.94 109.758 65.042 109.926 65.246C110.106 65.438 110.196 65.672 110.196 65.948C110.196 66.212 110.082 66.458 109.854 66.686C109.602 66.95 109.314 67.178 108.99 67.37C108.678 67.562 108.342 67.724 107.982 67.856C107.634 67.976 107.274 68.066 106.902 68.126C106.542 68.186 106.188 68.216 105.84 68.216C104.952 68.216 104.136 68.072 103.392 67.784C102.648 67.484 102 67.064 101.448 66.524C100.908 65.984 100.482 65.33 100.17 64.562C99.87 63.794 99.72 62.942 99.72 62.006C99.72 61.07 99.87 60.218 100.17 59.45C100.482 58.682 100.908 58.028 101.448 57.488C102 56.948 102.648 56.534 103.392 56.246C104.136 55.946 104.952 55.796 105.84 55.796C106.188 55.796 106.542 55.826 106.902 55.886C107.274 55.946 107.634 56.042 107.982 56.174C108.342 56.294 108.678 56.45 108.99 56.642C109.314 56.834 109.602 57.062 109.854 57.326C110.082 57.554 110.196 57.8 110.196 58.064C110.196 58.34 110.106 58.58 109.926 58.784C109.758 58.976 109.518 59.072 109.206 59.072C108.966 59.072 108.726 58.988 108.486 58.82C108.138 58.556 107.76 58.328 107.352 58.136C106.956 57.932 106.452 57.83 105.84 57.83C105.252 57.83 104.718 57.938 104.238 58.154C103.758 58.358 103.344 58.646 102.996 59.018C102.66 59.39 102.396 59.834 102.204 60.35C102.024 60.854 101.934 61.406 101.934 62.006C101.934 62.606 102.024 63.164 102.204 63.68C102.396 64.184 102.66 64.622 102.996 64.994C103.344 65.366 103.758 65.66 104.238 65.876C104.718 66.08 105.252 66.182 105.84 66.182Z" fill="black"/>
<path d="M119.916 65.354H114.588L113.562 67.55C113.466 67.73 113.346 67.874 113.202 67.982C113.07 68.09 112.884 68.144 112.644 68.144C112.32 68.144 112.062 68.042 111.87 67.838C111.69 67.622 111.6 67.382 111.6 67.118C111.6 66.974 111.636 66.83 111.708 66.686L116.316 56.444C116.484 56.06 116.796 55.868 117.252 55.868C117.708 55.868 118.02 56.06 118.188 56.444L122.796 66.686C122.868 66.83 122.904 66.974 122.904 67.118C122.904 67.382 122.808 67.622 122.616 67.838C122.436 68.042 122.184 68.144 121.86 68.144C121.62 68.144 121.428 68.096 121.284 68C121.152 67.892 121.038 67.742 120.942 67.55L119.916 65.354ZM117.252 58.496L115.38 63.428H119.124L117.252 58.496Z" fill="black"/>
<path d="M135.06 67.118C135.06 67.394 134.964 67.634 134.772 67.838C134.58 68.042 134.328 68.144 134.016 68.144C133.68 68.144 133.416 68.018 133.224 67.766L127.014 59.918V67.118C127.014 67.406 126.912 67.652 126.708 67.856C126.504 68.048 126.258 68.144 125.97 68.144C125.694 68.144 125.454 68.042 125.25 67.838C125.046 67.634 124.944 67.394 124.944 67.118V56.912C124.944 56.636 125.04 56.396 125.232 56.192C125.424 55.976 125.688 55.868 126.024 55.868C126.168 55.868 126.306 55.904 126.438 55.976C126.582 56.048 126.696 56.138 126.78 56.246L132.99 64.094V56.912C132.99 56.636 133.08 56.396 133.26 56.192C133.452 55.976 133.704 55.868 134.016 55.868C134.328 55.868 134.58 55.976 134.772 56.192C134.964 56.396 135.06 56.636 135.06 56.912V67.118Z" fill="black"/>
<path d="M145.404 65.354H140.076L139.05 67.55C138.954 67.73 138.834 67.874 138.69 67.982C138.558 68.09 138.372 68.144 138.132 68.144C137.808 68.144 137.55 68.042 137.358 67.838C137.178 67.622 137.088 67.382 137.088 67.118C137.088 66.974 137.124 66.83 137.196 66.686L141.804 56.444C141.972 56.06 142.284 55.868 142.74 55.868C143.196 55.868 143.508 56.06 143.676 56.444L148.284 66.686C148.356 66.83 148.392 66.974 148.392 67.118C148.392 67.382 148.296 67.622 148.104 67.838C147.924 68.042 147.672 68.144 147.348 68.144C147.108 68.144 146.916 68.096 146.772 68C146.64 67.892 146.526 67.742 146.43 67.55L145.404 65.354ZM142.74 58.496L140.868 63.428H144.612L142.74 58.496Z" fill="black"/>
<path d="M160.818 62.006C160.818 62.846 160.674 63.632 160.386 64.364C160.11 65.084 159.714 65.714 159.198 66.254C158.682 66.794 158.052 67.22 157.308 67.532C156.576 67.844 155.754 68 154.842 68H151.548C151.236 68 150.972 67.892 150.756 67.676C150.54 67.46 150.432 67.196 150.432 66.884V57.11C150.432 56.798 150.54 56.54 150.756 56.336C150.972 56.12 151.236 56.012 151.548 56.012H154.842C155.754 56.012 156.576 56.168 157.308 56.48C158.052 56.792 158.682 57.218 159.198 57.758C159.714 58.298 160.11 58.934 160.386 59.666C160.674 60.386 160.818 61.166 160.818 62.006ZM158.622 62.006C158.622 61.43 158.532 60.902 158.352 60.422C158.184 59.93 157.932 59.51 157.596 59.162C157.272 58.802 156.87 58.526 156.39 58.334C155.91 58.142 155.358 58.046 154.734 58.046H152.628V65.966H154.734C155.358 65.966 155.91 65.87 156.39 65.678C156.87 65.486 157.272 65.216 157.596 64.868C157.932 64.508 158.184 64.088 158.352 63.608C158.532 63.116 158.622 62.582 158.622 62.006Z" fill="black"/>
<path d="M169.978 65.354H164.65L163.624 67.55C163.528 67.73 163.408 67.874 163.264 67.982C163.132 68.09 162.946 68.144 162.706 68.144C162.382 68.144 162.124 68.042 161.932 67.838C161.752 67.622 161.662 67.382 161.662 67.118C161.662 66.974 161.698 66.83 161.77 66.686L166.378 56.444C166.546 56.06 166.858 55.868 167.314 55.868C167.77 55.868 168.082 56.06 168.25 56.444L172.858 66.686C172.93 66.83 172.966 66.974 172.966 67.118C172.966 67.382 172.87 67.622 172.678 67.838C172.498 68.042 172.246 68.144 171.922 68.144C171.682 68.144 171.49 68.096 171.346 68C171.214 67.892 171.1 67.742 171.004 67.55L169.978 65.354ZM167.314 58.496L165.442 63.428H169.186L167.314 58.496Z" fill="black"/>
</svg>
