<svg width="381" height="115" viewBox="0 0 381 115" fill="none" xmlns="http://www.w3.org/2000/svg">
<path d="M34.8519 36.1762L29.4289 41.4119V54.3767H19V9H29.4289V29.5691L34.0176 23.9282L46.9147 9H59.7423L41.7698 29.164L60.2637 54.3767H47.8533L34.8519 36.1762Z" fill="#6CC049"/>
<path d="M94.6443 34.7114H74.6208V46.8659H98.1206V54.3767H64.1919V9H98.0511V16.5732H74.6208V27.3875H94.6443V34.7114Z" fill="#6CC049"/>
<path d="M186.975 16.5732H171.471V54.3767H161.042V16.5732H145.746V9H186.975V16.5732Z" fill="#6CC049"/>
<path d="M211.691 37.7656H203.383V54.3767H192.954V9H211.761C217.74 9 222.352 10.1947 225.597 12.584C228.841 14.9734 230.463 18.3496 230.463 22.7127C230.463 25.8085 229.71 28.3952 228.204 30.4729C226.721 32.5298 224.461 34.1712 221.425 35.397L232.375 53.9404V54.3767H221.182L211.691 37.7656ZM203.383 30.1924H211.796C214.415 30.1924 216.442 29.6003 217.879 28.416C219.316 27.2109 220.035 25.5592 220.035 23.4607C220.035 21.3207 219.351 19.6378 217.984 18.4119C216.639 17.1861 214.565 16.5732 211.761 16.5732H203.383V30.1924Z" fill="#6CC049"/>
<path d="M276.733 9V38.8875C276.733 43.8532 274.995 47.78 271.519 50.668C268.065 53.556 263.338 55 257.335 55C251.426 55 246.733 53.5976 243.256 50.7927C239.78 47.9878 238.007 44.1337 237.938 39.2304V9H248.366V38.9499C248.366 41.921 249.154 44.0921 250.73 45.4634C252.329 46.8139 254.531 47.4892 257.335 47.4892C263.199 47.4892 266.177 44.7258 266.269 39.1992V9H276.733Z" fill="#6CC049"/>
<path d="M285.285 54.3767V9H300.859C305.308 9 309.283 9.90379 312.782 11.7114C316.305 13.4982 319.051 16.0537 321.021 19.378C322.991 22.6816 323.976 26.4422 323.976 30.6599V32.748C323.976 36.9657 323.003 40.7159 321.056 43.9986C319.132 47.2814 316.409 49.8266 312.887 51.6341C309.364 53.4417 305.389 54.3559 300.963 54.3767H285.285ZM295.714 16.5732V46.8659H300.754C304.833 46.8659 307.95 45.6712 310.106 43.2818C312.261 40.8925 313.362 37.4747 313.408 33.0285V30.6287C313.408 26.0163 312.342 22.5257 310.21 20.1572C308.078 17.7678 304.961 16.5732 300.859 16.5732H295.714Z" fill="#6CC049"/>
<path d="M359.4 45.0271H341.114L337.638 54.3767H326.548L345.39 9H355.054L374 54.3767H362.911L359.4 45.0271ZM343.93 37.4539H356.584L350.222 20.4688L343.93 37.4539Z" fill="#6CC049"/>
<path d="M113 21H118V30.5L113 27V21Z" fill="#80A6B7"/>
<path d="M113 44L118 41V53.5L113 50V44Z" fill="#80A6B7"/>
<path d="M113.415 34.68C113.915 33.36 116.415 33 116.415 33V40C116.415 40 114.06 39.2822 113.415 38.04C112.811 36.8753 112.915 36 113.415 34.68Z" fill="#80A6B7"/>
<path d="M142.322 9H133.434L121.161 21.3967V59L126.24 54.4545V24.7025C131.459 19.4683 141.983 9 142.322 9Z" fill="#6CC04B"/>
<path d="M100.013 9H108.901L121.174 21.3967V59L116.096 54.4545V24.7025C110.876 19.4683 100.352 9 100.013 9Z" fill="#0D213F"/>
<path d="M96.0159 0H106.516L121.016 15V60.5L115.016 55V19C108.849 12.6667 96.4159 0 96.0159 0Z" fill="#6CC04B"/>
<path d="M146 0H135.5L121 15V60.5L127 55V19C133.167 12.6667 145.6 0 146 0Z" fill="#0D213F"/>
<path d="M42.6299 22.2485V23H42.1904V20.8672H43.0225C43.1826 20.8672 43.3232 20.8965 43.4443 20.9551C43.5664 21.0137 43.6602 21.0972 43.7256 21.2056C43.791 21.313 43.8237 21.4355 43.8237 21.5732C43.8237 21.7822 43.752 21.9473 43.6084 22.0684C43.4658 22.1885 43.2681 22.2485 43.0151 22.2485H42.6299ZM42.6299 21.8926H43.0225C43.1387 21.8926 43.2271 21.8652 43.2876 21.8105C43.3491 21.7559 43.3799 21.6777 43.3799 21.5762C43.3799 21.4717 43.3491 21.3872 43.2876 21.3228C43.2261 21.2583 43.1411 21.2251 43.0327 21.2231H42.6299V21.8926ZM44.9897 21.812C44.9321 21.8042 44.8813 21.8003 44.8374 21.8003C44.6772 21.8003 44.5723 21.8545 44.5225 21.9629V23H44.0991V21.415H44.499L44.5107 21.604C44.5957 21.4585 44.7134 21.3857 44.8638 21.3857C44.9106 21.3857 44.9546 21.3921 44.9956 21.4048L44.9897 21.812Z" fill="#6CC04B"/>
<path d="M2.51953 13.9941V17H0.761719V8.46875H4.08984C4.73047 8.46875 5.29297 8.58594 5.77734 8.82031C6.26562 9.05469 6.64062 9.38867 6.90234 9.82227C7.16406 10.252 7.29492 10.7422 7.29492 11.293C7.29492 12.1289 7.00781 12.7891 6.43359 13.2734C5.86328 13.7539 5.07227 13.9941 4.06055 13.9941H2.51953ZM2.51953 12.5703H4.08984C4.55469 12.5703 4.9082 12.4609 5.15039 12.2422C5.39648 12.0234 5.51953 11.7109 5.51953 11.3047C5.51953 10.8867 5.39648 10.5488 5.15039 10.291C4.9043 10.0332 4.56445 9.90039 4.13086 9.89258H2.51953V12.5703ZM11.959 12.248C11.7285 12.2168 11.5254 12.2012 11.3496 12.2012C10.709 12.2012 10.2891 12.418 10.0898 12.8516V17H8.39648V10.6602H9.99609L10.043 11.416C10.3828 10.834 10.8535 10.543 11.4551 10.543C11.6426 10.543 11.8184 10.5684 11.9824 10.6191L11.959 12.248Z" fill="#6CC04B"/>
<path d="M25.4741 111.593C23.7485 102.344 22.7073 96.746 22.7073 89.8339C22.7073 86.8159 22.9155 83.7979 23.5403 79.3196C24.165 74.6952 24.8196 71.3852 25.2956 69H23.332C22.8263 71.0931 22.0528 74.2085 21.2198 78.5894C20.5355 82.2889 20 86.0857 20 89.9312C20 97.0381 21.9338 105.119 23.5403 111.593H25.4741Z" fill="#808184"/>
<path d="M30.2641 115H33.0309V102.879C33.8341 105.021 35.4407 106.53 37.6124 106.53C41.1825 106.53 44.4253 102.539 44.4253 93.436C44.4253 84.382 41.361 80.7799 38.1479 80.7799C36.9282 80.7799 34.4589 81.364 33.0606 85.2095L33.0011 81.1693H30.1748C30.2343 83.5058 30.2641 84.0899 30.2641 85.1608V115ZM32.9416 94.1175C32.9416 91.927 32.9416 84.1873 37.4042 84.1873C40.7065 84.1873 41.5097 88.763 41.5097 93.1439C41.5097 94.8963 41.361 98.4011 40.29 100.786C39.338 102.928 37.8504 103.171 37.1364 103.171C33.2094 103.171 32.9416 97.0868 32.9416 94.1175Z" fill="#808184"/>
<path d="M60.9762 94.2148C61.0357 90.2233 61.1845 80.5365 54.4906 80.5365C53.6279 80.5365 51.8429 80.6825 50.4148 82.3376C48.0646 85.0148 47.4696 89.0063 47.4696 93.8254C47.4696 101.565 49.7008 106.335 54.4014 106.335C57.4062 106.335 58.8937 104.291 59.5482 103.074C60.6192 101.176 60.7382 99.1799 60.8275 97.963H58.0309C57.7929 101.468 56.3352 103.025 54.5204 103.025C51.4561 103.025 50.1768 99.2772 50.2363 94.2148H60.9762ZM50.3553 91.0021C50.4148 85.5989 52.6164 83.7979 54.4311 83.7979C57.8822 83.7979 58.1499 88.6656 58.1202 91.0021H50.3553Z" fill="#808184"/>
<path d="M65.042 105.605H67.8683V91.7323C67.8683 90.1746 67.898 88.1788 68.5228 86.7672C68.8501 86.037 69.8913 84.0899 71.7953 84.0899C73.9969 84.0899 75.0679 86.4265 75.0679 89.4444V105.605H77.8942V91.927C77.8942 90.8561 77.8942 88.1788 78.5487 86.6698C78.9354 85.7937 79.9172 84.0899 81.7319 84.0899C83.16 84.0899 84.112 85.1122 84.588 86.2317C84.8557 86.8645 85.0937 87.7894 85.0937 89.9312V105.605H87.92V89.2011C87.92 81.9968 84.588 80.5365 82.446 80.5365C79.1437 80.5365 77.9239 83.7492 77.4181 85.1122C76.8826 83.3111 75.8414 80.5365 72.5391 80.5365C71.2598 80.5365 69.2368 80.8772 67.8088 84.7228V81.1693H64.9825L65.042 84.4307V105.605Z" fill="#808184"/>
<path d="M95.9626 70.4603H93.1661V101.224L93.1066 105.605H95.8139L95.8734 101.906C96.1709 102.636 96.4981 103.463 97.3311 104.388C98.6104 105.8 99.9491 105.946 100.663 105.946C102.716 105.946 104.709 104.534 105.899 101.76C106.643 100.153 107.327 97.5735 107.327 92.8519C107.327 87.4974 106.316 85.0635 105.572 83.6519C104.203 81.1206 102.329 80.5365 100.842 80.5365C97.4501 80.5365 96.3494 83.6032 95.9626 84.7228V70.4603ZM104.382 93.1439C104.382 97.1354 103.519 102.636 100.068 102.636C95.9031 102.636 95.9031 94.9937 95.9031 93.3873C95.9031 91.8296 95.9031 83.6519 100.187 83.6519C104.084 83.6519 104.382 90.7101 104.382 93.1439Z" fill="#808184"/>
<path d="M111.502 105.605H114.328V92.6085C114.328 88.4222 115.102 85.2095 118.404 85.2095C118.731 85.2095 118.999 85.2095 119.207 85.2582C119.416 85.3069 119.594 85.3556 119.743 85.4529V80.9746C119.267 80.9259 118.642 80.8772 117.809 81.072C116.56 81.364 114.775 82.4836 114.239 85.891L114.18 81.1693H111.353C111.443 82.7757 111.502 84.4794 111.502 86.1344V105.605Z" fill="#808184"/>
<path d="M121.816 93.6794C121.816 100.835 124.225 106.433 129.164 106.433C134.251 106.433 136.721 100.494 136.721 93.3386C136.721 88.2275 135.382 80.5365 129.402 80.5365C123.541 80.5365 121.816 87.6434 121.816 93.6794ZM124.731 93.3873C124.731 85.745 127.617 83.8952 129.402 83.8952C132.02 83.8952 133.746 87.1079 133.746 93.1926C133.746 100.543 131.336 103.025 129.223 103.025C126.04 103.025 124.731 98.4011 124.731 93.3873Z" fill="#808184"/>
<path d="M141.163 105.605H143.96V70.509H141.163V105.605Z" fill="#808184"/>
<path d="M149.116 75.5714H152.478V70.5577H149.116V75.5714ZM149.413 105.605H152.21V81.1693H149.413V105.605Z" fill="#808184"/>
<path d="M155.938 105.605H167.095V102.052H158.854L167.095 85.0635V81.1693H156.355V84.6254H163.911L155.938 100.884V105.605Z" fill="#808184"/>
<path d="M170.586 81.1693V97.5735C170.586 102.393 172.311 105.849 176 105.849C179.213 105.849 180.225 103.123 180.76 101.419L180.82 105.605H183.735C183.705 104.242 183.646 101.516 183.646 101.03V81.1693H180.76V94.9937C180.76 96.2106 180.76 98.109 180.135 99.5693C179.332 101.516 178.023 102.295 176.625 102.295C173.769 102.295 173.442 99.2772 173.442 96.8921V81.1693H170.586Z" fill="#808184"/>
<path d="M189.04 105.605H191.867V91.7323C191.867 90.1746 191.897 88.1788 192.521 86.7672C192.849 86.037 193.89 84.0899 195.794 84.0899C197.995 84.0899 199.066 86.4265 199.066 89.4444V105.605H201.893V91.927C201.893 90.8561 201.893 88.1788 202.547 86.6698C202.934 85.7937 203.916 84.0899 205.73 84.0899C207.158 84.0899 208.11 85.1122 208.586 86.2317C208.854 86.8645 209.092 87.7894 209.092 89.9312V105.605H211.918V89.2011C211.918 81.9968 208.586 80.5365 206.444 80.5365C203.142 80.5365 201.922 83.7492 201.417 85.1122C200.881 83.3111 199.84 80.5365 196.538 80.5365C195.258 80.5365 193.235 80.8772 191.807 84.7228V81.1693H188.981L189.04 84.4307V105.605Z" fill="#808184"/>
<path d="M228.797 105.605C228.589 103.123 228.559 99.8614 228.559 99.472L228.678 87.7894C228.678 86.6698 228.648 85.5016 228.172 84.0413C227.369 81.5587 225.048 80.4392 222.877 80.4392C221.3 80.4392 219.188 81.0233 218.057 83.0677C217.194 84.7228 217.105 86.4265 217.016 87.6921H219.812C219.842 86.7185 219.991 83.5545 222.817 83.5545C223.62 83.5545 224.84 83.9439 225.405 85.1608C225.941 86.2317 225.941 87.546 225.941 90.564C225.078 90.4667 224.632 90.418 223.918 90.418C222.728 90.418 220.348 90.564 218.741 92.0243C216.54 94.1175 216.123 97.2328 216.123 99.1799C216.123 103.22 217.968 106.384 221.389 106.384C222.639 106.384 224.662 105.995 226 101.954C226 103.22 226.06 104.388 226.268 105.605H228.797ZM225.941 93.728C225.881 97.1354 225.852 98.4984 225.227 100.153C224.543 101.857 223.472 102.782 222.044 102.782C219.545 102.782 218.95 100.105 218.95 98.5471C218.95 93.582 223.204 93.582 224.334 93.582C225.019 93.582 225.435 93.6307 225.941 93.728Z" fill="#808184"/>
<path d="M236.492 70.4603H233.696V101.224L233.636 105.605H236.344L236.403 101.906C236.701 102.636 237.028 103.463 237.861 104.388C239.14 105.8 240.479 105.946 241.193 105.946C243.246 105.946 245.239 104.534 246.429 101.76C247.173 100.153 247.857 97.5735 247.857 92.8519C247.857 87.4974 246.845 85.0635 246.102 83.6519C244.733 81.1206 242.859 80.5365 241.371 80.5365C237.98 80.5365 236.879 83.6032 236.492 84.7228V70.4603ZM244.912 93.1439C244.912 97.1354 244.049 102.636 240.598 102.636C236.433 102.636 236.433 94.9937 236.433 93.3873C236.433 91.8296 236.433 83.6519 240.717 83.6519C244.614 83.6519 244.912 90.7101 244.912 93.1439Z" fill="#808184"/>
<path d="M251.526 69C253.251 78.2487 254.293 83.8466 254.293 90.7101C254.293 93.728 254.084 96.7947 253.46 101.224C252.835 105.849 252.18 109.159 251.704 111.593H253.668C254.174 109.499 254.947 106.335 255.78 101.954C256.464 98.255 257 94.4582 257 90.6127C257 83.5058 255.066 75.4741 253.46 69H251.526Z" fill="#808184"/>
<path d="M369 14.489C369 13.4994 369.262 12.5809 369.786 11.7335C370.316 10.886 371.047 10.2198 371.977 9.7348C372.913 9.24493 373.922 9 375.004 9C376.087 9 377.093 9.24493 378.023 9.7348C378.953 10.2198 379.681 10.886 380.205 11.7335C380.735 12.5809 381 13.4994 381 14.489C381 15.454 380.746 16.3578 380.239 17.2004C379.732 18.043 379.01 18.7214 378.074 19.2358C377.144 19.7453 376.121 20 375.004 20C373.894 20 372.87 19.7477 371.934 19.2432C371.004 18.7337 370.283 18.0577 369.77 17.2151C369.257 16.3725 369 15.4638 369 14.489ZM369.973 14.489C369.973 15.3316 370.198 16.1129 370.649 16.833C371.1 17.5482 371.712 18.1091 372.484 18.5157C373.262 18.9223 374.102 19.1256 375.004 19.1256C375.912 19.1256 376.755 18.9198 377.533 18.5084C378.311 18.092 378.92 17.5286 379.359 16.8183C379.805 16.108 380.027 15.3316 380.027 14.489C380.027 13.6513 379.805 12.8798 379.359 12.1743C378.92 11.464 378.311 10.9056 377.533 10.499C376.755 10.0875 375.912 9.88176 375.004 9.88176C374.102 9.88176 373.262 10.0851 372.484 10.4917C371.706 10.8933 371.092 11.4518 370.641 12.167C370.195 12.8822 369.973 13.6562 369.973 14.489ZM373.761 15.0401V17.5237H372.569V11.2852H374.903C375.765 11.2852 376.433 11.4469 376.907 11.7702C377.386 12.0886 377.626 12.554 377.626 13.1663C377.626 13.7689 377.265 14.2293 376.543 14.5478C377.231 14.7927 377.578 15.2924 377.584 16.0468V16.495C377.584 16.9163 377.631 17.22 377.727 17.4061V17.5237H376.501C376.422 17.3474 376.383 17.0338 376.383 16.5832C376.383 16.1276 376.374 15.8582 376.357 15.7749C376.267 15.3046 375.898 15.0597 375.249 15.0401H373.761ZM373.761 14.0995H375.08C375.486 14.0897 375.813 14.004 376.061 13.8424C376.309 13.6807 376.433 13.4676 376.433 13.2031C376.433 12.8455 376.323 12.5932 376.104 12.4462C375.884 12.2944 375.492 12.2184 374.928 12.2184H373.761V14.0995Z" fill="#6CC049"/>
</svg>
