<svg width="159" height="47" viewBox="0 0 159 47" fill="none" xmlns="http://www.w3.org/2000/svg">
<g clip-path="url(#clip0)">
<path d="M137.148 12.547C137.148 14.199 137.148 15.851 137.148 17.503C137.084 17.987 136.427 17.273 136.064 17.038C134.771 16.211 132.914 15.323 130.177 15.643C126.566 16.069 123.7 19.276 123.673 23.386C123.648 27.226 126.47 30.642 130.023 31.131C132.947 31.533 135.478 30.313 137.148 28.963C137.148 30.717 137.148 32.473 137.148 34.229C128.21 38.03 117.519 32.577 118.564 21.994C119.348 14.073 128.697 8.56999 137.148 12.547Z" fill="#383D3D"/>
<path d="M65.755 11.618C67.241 15.604 68.874 19.444 70.401 23.386C72.143 19.604 73.661 15.598 75.202 11.618C77.681 11.618 80.16 11.618 82.636 11.618C82.636 19.36 82.636 27.105 82.636 34.847C80.984 34.847 79.331 34.847 77.68 34.847C77.68 29.427 77.68 24.007 77.68 18.586C75.114 23.868 72.857 29.458 70.555 35.001C68.039 29.669 65.789 24.075 63.431 18.586C63.07 23.696 63.379 29.48 63.277 34.847C61.625 34.847 59.974 34.847 58.322 34.847C58.322 27.105 58.322 19.36 58.322 11.618C60.8 11.618 63.278 11.618 65.755 11.618Z" fill="#383D3D"/>
<path d="M98.898 11.618C98.898 12.96 98.898 14.302 98.898 15.643C96.058 15.643 93.218 15.643 90.378 15.643C90.378 17.399 90.378 19.153 90.378 20.909C92.806 21.27 95.901 20.961 98.585 21.063C98.585 22.354 98.585 23.646 98.585 24.937C95.851 24.937 93.114 24.937 90.378 24.937C90.378 26.847 90.378 28.755 90.378 30.666C92.907 31.027 96.108 30.719 98.898 30.822C98.898 32.164 98.898 33.506 98.898 34.847C94.406 34.847 89.916 34.847 85.423 34.847C85.423 27.105 85.423 19.36 85.423 11.618C89.914 11.618 94.406 11.618 98.898 11.618Z" fill="#383D3D"/>
<path d="M113.607 24.781C115.666 28.246 118.652 31.609 120.421 34.847C118.497 34.415 116.872 35.437 115.155 34.847C114.387 34.583 113.401 32.607 112.831 31.749C110.815 28.714 108.159 25.112 106.638 22.146C114.531 23.777 114.159 13.455 106.173 15.333C106.173 21.837 106.173 28.342 106.173 34.846C104.523 34.846 102.87 34.846 101.218 34.846C101.218 27.104 101.218 19.359 101.218 11.617C106.073 11.8 112.759 10.739 115.62 13.474C118.641 16.365 118.33 23.556 113.607 24.781Z" fill="#383D3D"/>
<path d="M144.426 11.618C144.426 19.36 144.426 27.105 144.426 34.847C142.774 34.847 141.121 34.847 139.469 34.847C139.574 27.156 139.264 19.05 139.625 11.618C141.225 11.618 142.824 11.618 144.426 11.618Z" fill="#383D3D"/>
<path d="M157.742 11.618C158.172 11.598 157.584 12.418 157.277 12.856C156.982 13.28 156.498 13.677 156.193 14.096C154.361 16.622 152.302 19.602 150.464 22.149C153.167 26.416 156.591 30.787 158.982 34.849C156.955 34.433 155.314 35.421 153.562 34.849C152.726 34.574 151.83 32.622 151.24 31.751C149.144 28.657 146.578 25.048 144.736 22.303C147.132 18.61 149.631 15.016 152.324 11.618C154.129 11.618 155.938 11.618 157.742 11.618Z" fill="#383D3D"/>
<path d="M11.709 11.618C12.188 18.313 15.713 21.964 21.775 23.077C21.681 23.538 21.112 23.472 20.846 23.542C15.741 24.89 11.989 28.464 11.709 34.847C4.18399 34.475 -1.61701 28.119 0.403992 20.29C1.60599 15.638 5.67099 11.937 11.709 11.618C11.98 4.995 16.955 -0.0870045 23.479 0.00399545C29.968 0.0939955 34.494 4.768 34.937 11.154C34.951 11.374 34.962 11.592 34.783 11.618C27.092 11.618 19.401 11.618 11.709 11.618Z" fill="#009999"/>
<path d="M35.249 34.848C34.614 38.196 33.867 40.707 31.997 42.746C30.155 44.752 27.299 46.295 24.099 46.461C17.362 46.813 12.05 41.932 11.71 34.848C19.504 34.848 27.299 34.848 35.094 34.848C34.533 28.078 30.829 24.453 24.719 23.232C30.822 22.005 34.527 18.379 35.094 11.618C41.457 11.924 47.421 16.727 46.553 24.781C45.977 30.133 41.497 34.525 35.249 34.848Z" fill="#009999"/>
</g>
<defs>
<clipPath id="clip0">
<rect width="158.98" height="46.48" fill="white"/>
</clipPath>
</defs>
</svg>
