<svg width="153px" height="166px" viewBox="0 0 153 166" version="1.1" xmlns:xlink="http://www.w3.org/1999/xlink" xmlns="http://www.w3.org/2000/svg">
  <defs>
    <path d="M-1.81899e-12 0L152.731 0L152.731 165.002L-1.81899e-12 165.002L-1.81899e-12 0Z" id="path_1" />
    <clipPath id="mask_1">
      <use xlink:href="#path_1" />
    </clipPath>
  </defs>
  <g id="iconstudy">
    <path d="M-1.81899e-12 0L152.731 0L152.731 165.002L-1.81899e-12 165.002L-1.81899e-12 0Z" id="Clip-2" fill="none" fill-rule="evenodd" stroke="none" />
    <g clip-path="url(#mask_1)">
      <path d="M115.673 83.5954L38.6128 83.5954C37.089 83.5954 35.8524 82.3655 35.8524 80.8499C35.8524 79.3344 37.089 78.1044 38.6128 78.1044L115.673 78.1044C117.196 78.1044 118.433 79.3344 118.433 80.8499C118.433 82.3655 117.196 83.5954 115.673 83.5954L115.673 83.5954ZM115.673 100.194L38.6128 100.194C37.089 100.194 35.8524 98.9637 35.8524 97.4482C35.8524 95.9305 37.089 94.7027 38.6128 94.7027L115.673 94.7027C117.196 94.7027 118.433 95.9305 118.433 97.4482C118.433 98.9637 117.196 100.194 115.673 100.194L115.673 100.194ZM115.688 115.204L38.6238 115.204C37.1001 115.204 35.8634 113.976 35.8634 112.458C35.8634 110.943 37.1001 109.713 38.6238 109.713L115.688 109.713C117.212 109.713 118.449 110.943 118.449 112.458C118.449 113.976 117.212 115.204 115.688 115.204L115.688 115.204ZM115.688 130.216L38.6238 130.216C37.1001 130.216 35.8634 128.989 35.8634 127.471C35.8634 125.955 37.1001 124.725 38.6238 124.725L115.688 124.725C117.212 124.725 118.449 125.955 118.449 127.471C118.449 128.989 117.212 130.216 115.688 130.216L115.688 130.216ZM115.688 145.229L38.6238 145.229C37.1001 145.229 35.8634 143.999 35.8634 142.483C35.8634 140.968 37.1001 139.738 38.6238 139.738L115.688 139.738C117.212 139.738 118.449 140.968 118.449 142.483C118.449 143.999 117.212 145.229 115.688 145.229L115.688 145.229ZM42.5922 17.8437C41.4969 17.8437 40.6047 18.731 40.6047 19.8226L40.6047 43.724C40.6047 44.8156 41.4969 45.7029 42.5922 45.7029L110.163 45.7029C111.256 45.7029 112.146 44.8156 112.146 43.724L112.146 19.8226C112.146 18.731 111.256 17.8437 110.163 17.8437L88.7796 17.8437C87.2559 17.8437 86.0192 16.6137 86.0192 15.0981C86.0192 9.80039 81.6886 5.49103 76.3665 5.49103C71.0422 5.49103 66.7095 9.80039 66.7095 15.0981C66.7095 16.6137 65.4728 17.8437 63.9491 17.8437L42.5922 17.8437ZM22.9225 181.43L131.374 181.43L131.374 34.5188L117.667 34.5188L117.667 43.724C117.667 47.8422 114.301 51.194 110.163 51.194L42.5922 51.194C38.4538 51.194 35.0839 47.8422 35.0839 43.724L35.0839 34.5188L22.9225 34.5188L22.9225 181.43ZM17.4017 34.5891C10.7347 35.2832 5.52084 40.9104 5.52084 47.7258L5.54072 182.34L5.52084 197.651C5.52084 204.932 11.4723 210.856 18.7907 210.856L133.938 210.856C141.256 210.856 147.21 204.932 147.21 197.646L147.21 47.7258C147.21 41.4551 142.796 36.1903 136.895 34.8483L136.895 184.176C136.895 185.693 135.66 186.921 134.134 186.921L20.1621 186.921C18.6384 186.921 17.4017 185.693 17.4017 184.176L17.4017 34.5891ZM133.938 216.347L18.7907 216.347C8.42922 216.347 -1.81899e-12 207.958 -1.81899e-12 197.646L0.019875 182.335L-1.81899e-12 47.7258C-1.81899e-12 37.4159 8.42922 29.0278 18.7907 29.0278L35.0839 29.0278L35.0839 19.8226C35.0839 15.7022 38.4538 12.3526 42.5922 12.3526L61.4382 12.3526C62.7411 5.33508 68.9377 0 76.3665 0C83.791 0 89.9876 5.33508 91.2883 12.3526L110.163 12.3526C114.301 12.3526 117.667 15.7022 117.667 19.8226L117.667 29.0278L133.938 29.0278L134.134 29.0278C134.176 29.0278 134.216 29.0278 134.258 29.03C144.474 29.2013 152.731 37.5213 152.731 47.7258L152.731 197.646C152.731 207.958 144.299 216.347 133.938 216.347L133.938 216.347Z" id="Fill-1" fill="#FFFFFF" fill-rule="evenodd" stroke="none" />
    </g>
  </g>
</svg>